{"title":"Vampires Suck 2010 DvDRip H264 Feel-Free","uid":5923878,"size":746125678,"categoryP":"video","categoryS":"movies","magnet":"?xt=urn:btih:c206aae00e55908d3392f595ac855059425e091a&amp;dn=Vampires+Suck+2010+DvDRip+H264+Feel-Free&amp;tr=udp%3A%2F%2Ftracker.openbittorrent.com%3A80&amp;tr=udp%3A%2F%2Fopen.demonii.com%3A1337&amp;tr=udp%3A%2F%2Ftracker.coppersurfer.tk%3A6969&amp;tr=udp%3A%2F%2Fexodus.desync.com%3A6969","seeders":1,"leechers":0,"uploader":"neon","files":-1,"time":1288485988,"description":"Genre:Comedy\nLanguage:English\n &lt;a href=&quot; http://www.imdb.com/title/tt1666186/&quot; rel=&quot;nofollow&quot; target=&quot;_NEW&quot;&gt; http://www.imdb.com/title/tt1666186/&lt;/a&gt;\nSource:DVD\n\nGeneral\nComplete name :Vampires Suck 2010 DvDRip H264 Feel-Free\nFormat : MPEG-4\nFormat profile : Base Media / Version 2\nCodec ID : mp42\nFile size : 711 MiB\nDuration : 1h 17mn\nOverall bit rate : 1 278 Kbps\nVideo #1\nCodec ID : avc1\nCodec ID/Info : Advanced Video Coding\nDuration : 1h 17mn\nBit rate mode : Variable\nBit rate : 703 Kbps\nWidth : 720 pixels\nHeight : 384 pixels\nDisplay aspect ratio : 1.875\nFrame rate mode : Constant\nFrame rate : 23.976 fps\nResolution : 24 bits\nColorimetry : 4:2:0\nScan type : Progressive\nBits/(Pixel*Frame) : 0.106\nStream size : 391 MiB (55%)\nAudio #2\nID : 2\nFormat : AAC\nFormat/Info : Advanced Audio Codec\nFormat version : Version 4\nFormat profile : LC\nFormat settings, SBR : No\nCodec ID : 40\nDuration : 1h 17mn\nBit rate mode : Constant\nBit rate : 576 Kbps\nChannel(s) : 6 channels\nChannel positions : Front: L C R, Rear: L R, LFE\nSampling rate : 48.0 KHz\nResolution : 16 bits\nStream size : 318 MiB (45%)\n\nPlot:\nspoof of vampire-themed movies, where teenager Becca finds herself torn between two boys. As she and her friends wrestle with a number of different dramas, everything comes to a head at their prom.\n\n","torrent":{"xt":"urn:btih:c206aae00e55908d3392f595ac855059425e091a","amp;dn":"Vampires+Suck+2010+DvDRip+H264+Feel-Free","amp;tr":["udp%3A%2F%2Ftracker.openbittorrent.com%3A80","udp%3A%2F%2Fopen.demonii.com%3A1337","udp%3A%2F%2Ftracker.coppersurfer.tk%3A6969","udp%3A%2F%2Fexodus.desync.com%3A6969"],"infoHash":"c206aae00e55908d3392f595ac855059425e091a","infoHashBuffer":{"type":"Buffer","data":[194,6,170,224,14,85,144,141,51,146,245,149,172,133,80,89,66,94,9,26]},"announce":[],"urlList":[]}}